#N canvas 475 181 660 591 10;
#X declare -path Fraise -stdpath Fraise;
#X declare -path abs -path main;
#X obj 21 38 pied/pied 0 41424;
#X obj 21 16 declare -path Fraise -stdpath Fraise;
#N canvas 531 83 905 566 NETWORK/SEQUENCE 0;
#X obj 147 260 s reSend;
#X obj 121 96 f;
#X obj 150 96 r reSend;
#X obj 63 401 s piedOn;
#X obj 121 11 PdServeur NET 424242;
#X obj 63 330 r NET-fromclients;
#X obj 63 352 route CLIENT;
#X obj 98 503 s NET-toclients;
#X obj 121 138 s NET-toclients;
#X obj 98 481 list prepend CLIENT Echo;
#N canvas 6 75 450 300 test_connected 0;
#X obj 130 50 inlet;
#X obj 130 79 route test;
#X obj 130 99 t b b;
#X obj 130 121 del 1000;
#X msg 130 143 0;
#X msg 169 144 1;
#X obj 130 169 change;
#X obj 130 194 tgl 15 0 \$0-CONNECTED empty CONNECTED 17 7 0 10 -262144
-1 -1 0 1;
#X obj 109 218 outlet;
#X connect 0 0 1 0;
#X connect 1 0 2 0;
#X connect 2 0 3 0;
#X connect 2 1 5 0;
#X connect 3 0 4 0;
#X connect 4 0 6 0;
#X connect 5 0 6 0;
#X connect 6 0 7 0;
#X connect 6 0 8 0;
#X restore 79 525 pd test_connected;
#X obj 79 546 tgl 15 0 empty empty empty 17 7 0 10 -262144 -1 -1 0
1;
#X obj 120 169 r NET-nbclients;
#X obj 120 194 sel 0;
#X obj 147 218 b;
#X obj 147 239 del 200;
#X obj 278 42 r toClient;
#X obj 278 61 list prepend CLIENT;
#X obj 278 81 s NET-toclients;
#X obj 131 453 ggee/shell;
#N canvas 11 74 591 317 test-rw 0;
#X msg 90 127 mount | grep /dev/mmcblk0p2 | cut -d' ' -f 6 | cut -c
2-3;
#X obj 90 181 route ro rw;
#X msg 90 202 ro;
#X msg 127 201 rw;
#X obj 90 227 outlet;
#X obj 90 98 metro 2000;
#X obj 90 54 loadbang;
#X obj 90 76 tgl 15 0 empty empty empty 17 7 0 10 -262144 -1 -1 0 1
;
#X obj 90 154 ggee/shell;
#X connect 0 0 8 0;
#X connect 1 0 2 0;
#X connect 1 1 3 0;
#X connect 2 0 4 0;
#X connect 3 0 4 0;
#X connect 5 0 0 0;
#X connect 7 0 5 0;
#X connect 8 0 1 0;
#X restore 483 206 pd test-rw;
#X obj 483 229 list prepend rorw;
#X obj 307 464 list trim;
#X obj 307 492 s CONTROL;
#X obj 467 320 s toClient;
#X obj 480 128 r seq-conduite-line;
#X obj 468 45 r toSeq;
#X obj 468 68 s seq-conduite-rcv;
#X obj 467 104 r seq-conduite-snd;
#X obj 467 174 list prepend seq;
#X obj 480 150 list prepend line;
#X obj 252 421 s toSeq;
#X obj 307 433 r seq-conduite-line;
#X obj 502 256 r MONITOR;
#X obj 502 278 list prepend monitor;
#X obj 648 256 r seq-conduite-dump;
#X msg 583 33 dump seq-conduite-dump;
#X obj 231 259 r NET-nbclients;
#X obj 231 281 > 0;
#N canvas 628 147 450 300 fruits_present 0;
#X obj 48 64 route present;
#X obj 48 44 fruit/receive Mot1;
#X obj 165 64 route present;
#X obj 283 63 route present;
#X obj 48 174 &&;
#X obj 59 151 t b f;
#X obj 165 116 &&;
#X obj 176 93 t b f;
#X obj 285 202 &&;
#X obj 296 179 t b f;
#X obj 296 156 route present;
#X obj 296 136 fruit/receive Lampes;
#X obj 165 44 fruit/receive Mot2;
#X obj 283 43 fruit/receive Mot3;
#X obj 48 196 change;
#X obj 48 218 outlet;
#X connect 0 0 4 0;
#X connect 1 0 0 0;
#X connect 2 0 6 0;
#X connect 3 0 7 0;
#X connect 4 0 14 0;
#X connect 5 0 4 0;
#X connect 5 1 4 1;
#X connect 6 0 5 0;
#X connect 7 0 6 0;
#X connect 7 1 6 1;
#X connect 9 0 8 0;
#X connect 9 1 8 1;
#X connect 10 0 9 0;
#X connect 11 0 10 0;
#X connect 12 0 2 0;
#X connect 13 0 3 0;
#X connect 14 0 15 0;
#X restore 121 56 pd fruits_present;
#X obj 231 303 change;
#X obj 231 325 sel 1 0;
#X obj 121 76 tgl 15 0 empty empty empty 17 7 0 10 -262144 -1 -1 0
1;
#X obj 121 116 list prepend CLIENT fruitsOK;
#X obj 648 278 list prepend seq;
#X obj 470 498 s MOT1-RESET_ZERO;
#X obj 485 478 s MOT2-RESET_ZERO;
#X obj 501 458 s MOT3-RESET_ZERO;
#X obj 290 401 s STOPMOTORS;
#X msg 131 410 /home/pi/bin/rw;
#X msg 143 431 /home/pi/bin/ro;
#X obj 470 411 sel 1 2 3 4;
#X obj 517 436 s MOT4-RESET_ZERO;
#X obj 655 205 r OSCrec-snd;
#X obj 655 226 list prepend OSCrec;
#X obj 375 409 s OSCrec-rcv;
#X obj 63 377 route piedOn Echo rw ro seq RESET STOPMOTORS OSCrec;
#X obj 658 356 print;
#X connect 1 0 43 0;
#X connect 2 0 1 0;
#X connect 5 0 6 0;
#X connect 6 0 56 0;
#X connect 9 0 7 0;
#X connect 10 0 11 0;
#X connect 12 0 13 0;
#X connect 13 1 14 0;
#X connect 14 0 15 0;
#X connect 15 0 0 0;
#X connect 16 0 17 0;
#X connect 17 0 18 0;
#X connect 20 0 21 0;
#X connect 21 0 24 0;
#X connect 22 0 23 0;
#X connect 25 0 30 0;
#X connect 26 0 27 0;
#X connect 28 0 29 0;
#X connect 29 0 24 0;
#X connect 30 0 29 0;
#X connect 32 0 22 0;
#X connect 33 0 34 0;
#X connect 34 0 24 0;
#X connect 35 0 44 0;
#X connect 36 0 27 0;
#X connect 37 0 38 0;
#X connect 38 0 40 0;
#X connect 39 0 42 0;
#X connect 40 0 41 0;
#X connect 41 0 49 0;
#X connect 41 1 50 0;
#X connect 42 0 1 0;
#X connect 43 0 8 0;
#X connect 44 0 24 0;
#X connect 49 0 19 0;
#X connect 50 0 19 0;
#X connect 51 0 45 0;
#X connect 51 1 46 0;
#X connect 51 2 47 0;
#X connect 51 3 52 0;
#X connect 53 0 54 0;
#X connect 54 0 24 0;
#X connect 56 0 3 0;
#X connect 56 1 10 0;
#X connect 56 1 9 0;
#X connect 56 2 49 0;
#X connect 56 3 50 0;
#X connect 56 4 31 0;
#X connect 56 5 51 0;
#X connect 56 6 48 0;
#X connect 56 7 55 0;
#X connect 56 8 22 0;
#X restore 26 523 pd NETWORK/SEQUENCE;
#X obj 420 476 seq/main conduite;
#X msg 420 452 load \$1;
#X msg 420 430 1;
#X obj 26 354 loadbang;
#N canvas 10 208 562 386 SET_ZEROS 0;
#X obj 57 15 r MOT1-status-ok;
#X obj 70 36 r MOT2-status-ok;
#X obj 83 59 r MOT3-status-ok;
#X obj 57 216 &&;
#X obj 70 192 t b f;
#X obj 70 170 &&;
#X obj 83 146 t b f;
#X obj 230 96 t b b;
#X obj 57 238 sel 1;
#X obj 57 267 spigot;
#X msg 230 121 1;
#X obj 57 310 outlet;
#X obj 230 26 inlet;
#X obj 257 249 s MOT1-RESET_ZERO;
#X obj 276 225 s MOT2-RESET_ZERO;
#X obj 288 201 s MOT3-RESET_ZERO;
#X obj 257 121 b;
#X msg 114 287 0;
#X obj 57 289 t b b;
#X obj 321 35 bng 15 250 50 0 empty empty empty 17 7 0 10 -262144 -1
-1;
#X obj 230 48 del 1000;
#X obj 304 178 s MOT4-RESET_ZERO;
#X obj 83 126 &&;
#X obj 96 102 t b f;
#X obj 96 81 r MOT4-status-ok;
#X obj 297 125 bng 15 250 50 0 empty empty empty 17 7 0 10 -262144
-1 -1;
#X obj 324 127 bng 15 250 50 0 empty empty empty 17 7 0 10 -262144
-1 -1;
#X obj 354 126 bng 15 250 50 0 empty empty empty 17 7 0 10 -262144
-1 -1;
#X obj 375 126 bng 15 250 50 0 empty empty empty 17 7 0 10 -262144
-1 -1;
#X connect 0 0 3 0;
#X connect 1 0 5 0;
#X connect 2 0 22 0;
#X connect 3 0 8 0;
#X connect 4 0 3 0;
#X connect 4 1 3 1;
#X connect 5 0 4 0;
#X connect 6 0 5 0;
#X connect 6 1 5 1;
#X connect 7 0 10 0;
#X connect 7 1 16 0;
#X connect 8 0 9 0;
#X connect 9 0 18 0;
#X connect 10 0 9 1;
#X connect 12 0 20 0;
#X connect 16 0 13 0;
#X connect 16 0 14 0;
#X connect 16 0 15 0;
#X connect 16 0 21 0;
#X connect 17 0 9 1;
#X connect 18 0 11 0;
#X connect 18 1 17 0;
#X connect 19 0 16 0;
#X connect 20 0 7 0;
#X connect 22 0 6 0;
#X connect 23 0 22 0;
#X connect 23 1 22 1;
#X connect 24 0 23 0;
#X connect 25 0 13 0;
#X connect 26 0 14 0;
#X connect 27 0 15 0;
#X connect 28 0 21 0;
#X restore 26 376 pd SET_ZEROS;
#N canvas 709 524 681 319 OSC 0;
#X obj 58 143 netsend -u -b;
#X floatatom 58 165 5 0 0 0 - - -, f 5;
#X msg 226 156 connect 192.168.1.29 9001;
#X obj 226 131 loadbang;
#X msg 298 129 disconnect;
#X obj 58 22 r toOSC;
#X obj 58 44 list prepend send;
#X obj 58 66 list trim;
#X obj 435 114 netreceive -u -b 9002;
#X obj 435 136 oscparse;
#X obj 435 178 s fromOSC;
#X obj 435 158 list trim;
#X msg 120 187 connect localhost 9001;
#X msg 87 219 connect jmarc.local 9001;
#X msg 91 250 connect 0.0.0.0 9001;
#X msg 84 281 connect 255.255.255.0 9001;
#X obj 195 9 r NET-fromclients;
#X obj 195 52 route remoteHOSTNAME;
#X msg 195 93 disconnect \, connect \$1.local 9001;
#X obj 200 115 bng 15 250 50 0 empty empty empty 17 7 0 10 -262144
-1 -1;
#X obj 195 31 route CLIENT;
#X obj 195 74 list;
#X obj 494 237 print OSC;
#X obj 372 58 print;
#X obj 351 27 bng 15 250 50 0 empty empty empty 17 7 0 10 -262144 -1
-1;
#X connect 0 0 1 0;
#X connect 2 0 0 0;
#X connect 4 0 0 0;
#X connect 5 0 6 0;
#X connect 6 0 7 0;
#X connect 7 0 0 0;
#X connect 8 0 9 0;
#X connect 9 0 11 0;
#X connect 11 0 10 0;
#X connect 12 0 0 0;
#X connect 13 0 0 0;
#X connect 14 0 0 0;
#X connect 15 0 0 0;
#X connect 16 0 20 0;
#X connect 17 0 21 0;
#X connect 18 0 19 0;
#X connect 18 0 0 0;
#X connect 18 0 23 0;
#X connect 20 0 17 0;
#X connect 21 0 18 0;
#X connect 24 0 21 0;
#X restore 133 343 pd OSC;
#X obj 133 364 OSCrecorder;
#X obj 229 553 s OSCrec-rcv;
#X msg 229 532 replay;
#N canvas 56 545 450 300 offsets 0;
#X obj 60 111 s 1Y-offset;
#X floatatom 382 69 5 0 0 0 - - -, f 5;
#X obj 157 111 s 2Y-offset;
#X msg 157 79 57;
#X msg 60 80 48;
#X obj 246 115 s 3Y-offset;
#X msg 246 89 57;
#X obj 342 116 s 4Y-offset;
#X msg 342 90 40;
#X obj 60 9 loadbang;
#X obj 60 37 b;
#X obj 39 13 bng 15 250 50 0 empty empty empty 17 7 0 10 -262144 -1
-1;
#X connect 1 0 7 0;
#X connect 3 0 2 0;
#X connect 4 0 0 0;
#X connect 6 0 5 0;
#X connect 8 0 7 0;
#X connect 9 0 10 0;
#X connect 10 0 4 0;
#X connect 10 0 3 0;
#X connect 10 0 6 0;
#X connect 10 0 8 0;
#X connect 11 0 10 0;
#X restore 42 560 pd offsets;
#N canvas 8 74 450 300 test 0;
#X obj 118 111 s CONTROL;
#X obj 118 54 hsl 128 15 0 100 0 0 empty empty empty -2 -8 0 10 -262144
-1 -1 0 1;
#X msg 118 89 1L2 \$1 0.1;
#X obj 235 175 s CONTROL;
#X obj 275 81 hsl 128 15 -150 150 0 0 empty empty empty -2 -8 0 10
-262144 -1 -1 0 1;
#X msg 235 153 2R \$1 5;
#X connect 1 0 2 0;
#X connect 2 0 0 0;
#X connect 4 0 5 0;
#X connect 5 0 3 0;
#X restore 151 474 pd test;
#X obj 291 16 declare -path abs -path main;
#N canvas 335 399 708 282 audioPlayer 0;
#X obj 70 234 *~;
#X obj 116 235 *~;
#X msg 186 184 \$1 10;
#X obj 186 206 line~;
#X obj 70 256 dac~;
#X msg 70 119 open ~/Datas/Chimere/\$1.wav \, 1;
#X obj 70 198 readsf~ 2 1e+06;
#X msg 70 93 1;
#X obj 102 22 r OSCrec-rcv;
#X obj 102 44 route stop replay;
#X msg 30 92 0;
#X obj 370 129 hsl 128 15 0 1 0 1 empty empty empty -2 -8 0 10 -262144
-1 -1 9100 1;
#X obj 186 162 pow 2;
#X obj 254 26 r OSCrec-snd;
#X obj 254 48 route stop;
#X connect 0 0 4 0;
#X connect 1 0 4 1;
#X connect 2 0 3 0;
#X connect 3 0 1 1;
#X connect 3 0 0 1;
#X connect 5 0 6 0;
#X connect 6 0 0 0;
#X connect 6 1 1 0;
#X connect 7 0 5 0;
#X connect 8 0 9 0;
#X connect 9 0 10 0;
#X connect 9 1 7 0;
#X connect 10 0 6 0;
#X connect 11 0 12 0;
#X connect 12 0 2 0;
#X connect 13 0 14 0;
#X connect 14 0 10 0;
#X restore 28 468 pd audioPlayer;
#X obj 287 42 loadbang;
#X msg 287 64 \; pd dsp 1;
#X msg 282 531 stop;
#N canvas 313 93 450 414 startButton 0;
#X obj 100 193 shell;
#X msg 71 104 gpio mode 0 up;
#X msg 113 164 gpio read 0;
#X floatatom 56 248 5 0 0 0 - - -, f 5;
#X obj 71 33 loadbang;
#X obj 197 82 del 1000;
#X obj 197 105 tgl 15 0 empty empty empty 17 7 0 10 -262144 -1 -1 1
1;
#X obj 126 295 outlet;
#X msg 282 91 50;
#X obj 197 125 metro 100;
#X obj 126 245 == 1;
#X obj 126 223 change 0;
#X connect 0 0 3 0;
#X connect 0 0 11 0;
#X connect 1 0 0 0;
#X connect 2 0 0 0;
#X connect 4 0 1 0;
#X connect 4 0 5 0;
#X connect 5 0 6 0;
#X connect 6 0 9 0;
#X connect 8 0 9 1;
#X connect 9 0 2 0;
#X connect 10 0 7 0;
#X connect 11 0 10 0;
#X restore 229 425 pd startButton;
#X obj 229 446 tgl 15 0 empty empty empty 17 7 0 10 -262144 -1 -1 0
1;
#X obj 229 466 sel 1;
#X obj 229 487 tgl 15 0 empty empty empty 17 7 0 10 -262144 -1 -1 0
1;
#X obj 229 507 sel 1 0;
#X obj 290 453 r OSCrec-snd;
#X msg 290 497 set 0;
#X obj 290 475 route stop;
#X obj 338 118 lyre 3 2460;
#X obj 179 118 lyre 2 2460;
#X obj 21 118 lyre 1 2460;
#X obj 496 118 lyre 4 2460;
#X obj 326 531 r STOPMOTORS;
#X obj 98 355 bng 15 250 50 0 empty empty empty 17 7 0 10 -262144 -1
-1;
#X connect 4 0 3 0;
#X connect 5 0 4 0;
#X connect 6 0 7 0;
#X connect 11 0 10 0;
#X connect 16 0 17 0;
#X connect 18 0 10 0;
#X connect 19 0 20 0;
#X connect 20 0 21 0;
#X connect 21 0 22 0;
#X connect 22 0 23 0;
#X connect 23 0 11 0;
#X connect 23 1 18 0;
#X connect 24 0 26 0;
#X connect 25 0 22 0;
#X connect 26 0 25 0;
#X connect 31 0 18 0;
#X connect 32 0 7 0;
