#N canvas 127 83 765 446 10;
#X declare -path abs -path remote;
#X obj 3 9 cnv 15 180 390 empty empty SEQUENCE 100 12 0 14 -262130
-66577 0;
#X obj 12 13 bng 30 250 50 0 \$0-stopSeq-snd \$0-stopSeq-rcv STOP 1
15 0 12 -260097 -1 -1;
#X obj 11 49 seqb \$0 1;
#X obj 188 10 cnv 15 570 315 empty empty Commandes_live 20 12 0 14
-204800 -66577 0;
#N canvas 380 208 939 652 guts 1;
#X obj 356 306 s CLIENT-toserver;
#X obj 134 124 r CLIENT-fromserver;
#X obj 134 166 tgl 15 0 empty empty empty 17 7 0 10 -262144 -1 -1 0
1;
#N canvas 11 75 450 300 test_connected 0;
#X obj 39 90 s CLIENT-toserver;
#X obj 39 111 r CLIENT-fromserver;
#X msg 39 67 Echo test;
#X obj 39 133 route Echo;
#X obj 39 152 route test;
#X obj 39 48 metro 500;
#X obj 39 30 tgl 15 0 empty empty empty 17 7 0 10 -262144 -1 -1 1 1
;
#X obj 39 9 loadbang;
#X obj 39 172 t b b;
#X obj 39 194 del 1000;
#X msg 39 216 0;
#X msg 78 217 1;
#X obj 39 242 change;
#X obj 39 267 tgl 15 0 \$0-CONNECTED empty CONNECTED 17 7 0 10 -262144
-1 -1 0 1;
#X obj 184 218 loadbang;
#X msg 184 240 0;
#X connect 1 0 3 0;
#X connect 2 0 0 0;
#X connect 3 0 4 0;
#X connect 4 0 8 0;
#X connect 5 0 2 0;
#X connect 6 0 5 0;
#X connect 7 0 6 0;
#X connect 8 0 9 0;
#X connect 8 1 11 0;
#X connect 9 0 10 0;
#X connect 10 0 12 0;
#X connect 11 0 12 0;
#X connect 12 0 13 0;
#X connect 14 0 15 0;
#X connect 15 0 13 0;
#X restore 68 71 pd test_connected;
#X obj 68 128 tgl 15 0 empty empty empty 17 7 0 10 -262144 -1 -1 0
1;
#X obj 68 105 r \$0-CONNECTED;
#X obj 68 323 s \$0-connected-can;
#X msg 108 235 label connecté \, color 16 22 22;
#X msg 68 279 label non_connecté \, color 10 22 22;
#X msg 88 256 label probleme_moteur \, color 13 22 22;
#X obj 68 166 *;
#X obj 85 136 t b f;
#X obj 134 186 + 1;
#X obj 68 213 sel 0 1 2;
#X obj 67 358 r CLIENT-fromserver;
#X obj 451 197 r \$0-stopSeq-snd;
#X msg 451 221 seq stop;
#X obj 371 28 r \$0-allstop-snd;
#X obj 371 53 bng 15 250 50 0 empty empty empty 17 7 0 10 -262144 -1
-1;
#X obj 371 79 s \$0-stopSeq-rcv;
#X msg 384 244 ro;
#X msg 356 243 rw;
#X obj 175 439 route ro rw;
#X msg 175 459 1;
#X msg 204 459 0;
#X msg 190 484 set \$1;
#X obj 356 220 sel 0 1;
#X msg 289 474 set 0;
#X obj 207 515 s \$0-rorw-rcv;
#X obj 356 198 r \$0-rorw-snd;
#X msg 246 473 set 1;
#X obj 67 426 s CLIENT_MONITOR;
#X obj 324 169 r CLIENT_REMOTE;
#X obj 575 179 r \$0-skipSeq-snd;
#X msg 575 202 seq skip;
#X obj 385 377 print CLI;
#X obj 304 452 text fromlist \$0-text;
#X msg 544 253 seq dump seq-conduite-dump;
#X obj 536 338 text tolist \$0-text;
#X obj 536 360 list prepend seq get;
#X obj 560 55 route seq;
#X obj 560 75 route nb;
#X obj 560 97 change -1;
#X floatatom 560 123 5 0 0 0 - - -, f 5;
#X obj 596 124 s CLIENT-seqnb;
#X obj 544 232 r CLIENT-seqnb;
#X floatatom 518 114 5 0 0 0 - - -, f 5;
#X obj 560 36 r CLIENT-fromserver;
#X obj 485 528 text define \$0-text;
#X msg 485 504 click;
#X obj 485 479 r \$0-editSeq-snd;
#X obj 306 358 r \$0-saveSeq-snd;
#X obj 498 414 r CLIENT-seqnb;
#X obj 480 434 f;
#X msg 480 456 seq save \$1;
#N canvas 5 75 450 300 OLD/TEMP 0;
#X obj 206 57 bng 70 250 50 0 \$0-allstop-snd \$0-allstop-rcv ALL_STOP
5 30 0 14 -258113 -1 -1;
#X restore 170 590 pd OLD/TEMP;
#X obj 134 146 route fruitsOK;
#X msg 435 522 save;
#X msg 306 386 send;
#X obj 306 430 list prepend seq;
#X obj 306 410 seq/textExchange \$0-text;
#X obj 481 413 bng 15 250 50 0 empty empty empty 17 7 0 10 -262144
-1 -1;
#X obj 349 485 route setl;
#X msg 349 549 click;
#X obj 349 529 del 500;
#X obj 349 507 b;
#X obj 743 80 s CLIENT_REMOTE;
#X msg 743 56 RESET 1;
#X obj 743 153 s CLIENT_REMOTE;
#X obj 741 228 s CLIENT_REMOTE;
#X obj 742 34 r \$0-resetZero1-snd;
#X obj 743 107 r \$0-resetZero2-snd;
#X msg 743 129 RESET 2;
#X obj 741 183 r \$0-resetZero3-snd;
#X msg 741 204 RESET 3;
#X obj 741 328 r \$0-STOPMOTORS-snd;
#X obj 741 373 s CLIENT_REMOTE;
#X msg 741 349 STOPMOTORS;
#X obj 741 298 s CLIENT_REMOTE;
#X obj 741 253 r \$0-resetZero4-snd;
#X msg 741 274 RESET 4;
#X obj 544 300 list prepend OSCrec;
#X obj 544 279 r \$0-OSCrec-snd;
#X obj 258 331 s \$0-OSCrec-rcv;
#X obj 282 145 print;
#X obj 89 504 print;
#X obj 67 382 route monitor rorw seqdump seq OSCrec;
#X obj 69 30 PdClient CLIENT CLIENT Chimere.local;
#X obj 715 484 declare -path abs -path remote;
#X connect 1 0 56 0;
#X connect 2 0 12 0;
#X connect 4 0 10 0;
#X connect 5 0 4 0;
#X connect 7 0 6 0;
#X connect 8 0 6 0;
#X connect 9 0 6 0;
#X connect 10 0 13 0;
#X connect 11 0 10 0;
#X connect 11 1 10 1;
#X connect 12 0 11 0;
#X connect 13 0 8 0;
#X connect 13 1 9 0;
#X connect 13 2 7 0;
#X connect 14 0 86 0;
#X connect 15 0 16 0;
#X connect 16 0 0 0;
#X connect 17 0 18 0;
#X connect 18 0 19 0;
#X connect 20 0 0 0;
#X connect 21 0 0 0;
#X connect 22 0 23 0;
#X connect 22 1 24 0;
#X connect 23 0 25 0;
#X connect 24 0 25 0;
#X connect 25 0 28 0;
#X connect 26 0 21 0;
#X connect 26 1 20 0;
#X connect 27 0 28 0;
#X connect 29 0 26 0;
#X connect 30 0 28 0;
#X connect 32 0 0 0;
#X connect 33 0 34 0;
#X connect 34 0 0 0;
#X connect 37 0 0 0;
#X connect 38 0 39 0;
#X connect 40 0 41 0;
#X connect 41 0 42 0;
#X connect 41 0 46 0;
#X connect 42 0 43 0;
#X connect 42 0 44 0;
#X connect 45 0 37 0;
#X connect 47 0 40 0;
#X connect 49 0 48 0;
#X connect 50 0 49 0;
#X connect 51 0 58 0;
#X connect 52 0 53 1;
#X connect 53 0 54 0;
#X connect 54 0 0 0;
#X connect 56 0 2 0;
#X connect 57 0 48 0;
#X connect 58 0 60 0;
#X connect 59 0 0 0;
#X connect 60 0 59 0;
#X connect 60 1 53 0;
#X connect 61 0 53 0;
#X connect 62 0 65 0;
#X connect 63 0 48 0;
#X connect 64 0 63 0;
#X connect 65 0 64 0;
#X connect 67 0 66 0;
#X connect 70 0 67 0;
#X connect 71 0 72 0;
#X connect 72 0 68 0;
#X connect 73 0 74 0;
#X connect 74 0 69 0;
#X connect 75 0 77 0;
#X connect 77 0 76 0;
#X connect 79 0 80 0;
#X connect 80 0 78 0;
#X connect 81 0 0 0;
#X connect 82 0 81 0;
#X connect 86 0 31 0;
#X connect 86 1 22 0;
#X connect 86 2 36 0;
#X connect 86 3 60 0;
#X connect 86 3 62 0;
#X connect 86 4 83 0;
#X restore 625 331 pd guts;
#X obj 268 364 hradio 30 1 0 2 \$0-rorw-snd \$0-rorw-rcv readwrite________readonly
-75 23 0 14 -262144 -1 -1 0;
#X obj 52 13 bng 30 250 50 0 \$0-skipSeq-snd \$0-skipSeq-rcv SKIP 1
15 0 12 -257985 -1 -1;
#X obj 11 100 seqb \$0 2;
#X obj 11 151 seqb \$0 3;
#X obj 11 202 seqb \$0 4;
#X obj 11 253 seqb \$0 5;
#X obj 11 303 seqb \$0 6;
#X obj 11 358 bng 30 250 50 0 \$0-editSeq-snd \$0-editSeq-rcv EDIT
1 15 0 12 -4034 -1 -1;
#X obj 49 358 bng 30 250 50 0 \$0-saveSeq-snd \$0-saveSeq-rcv SAVE
1 15 0 12 -1 -258113 -258113;
#X obj 188 330 cnv 15 140 30 empty \$0-connected-can non_connecté
10 15 0 14 -233017 -1 0;
#N canvas 11 155 244 278 resetZeros 0;
#X obj 16 8 bng 40 250 50 0 \$0-resetZero1-snd \$0-resetZero1-rcv 1_
15 20 0 20 -258113 -1 -1;
#X obj 14 61 bng 40 250 50 0 \$0-resetZero2-snd \$0-resetZero2-rcv
2_ 15 20 0 20 -258113 -1 -1;
#X obj 15 116 bng 40 250 50 0 \$0-resetZero3-snd \$0-resetZero3-rcv
3_ 15 20 0 20 -258113 -1 -1;
#X obj 18 224 bng 40 250 50 0 \$0-STOPMOTORS-snd \$0-STOPMOTORS-rcv
STOPMOTORS 43 20 0 20 -258113 -1 -1;
#X obj 15 172 bng 40 250 50 0 \$0-resetZero4-snd \$0-resetZero4-rcv
4_ 15 20 0 20 -258113 -1 -1;
#X restore 675 331 pd resetZeros;
#X obj 337 330 bng 40 250 50 0 \$0-STOPMOTORS-snd \$0-STOPMOTORS-rcv
STOPMOTORS 43 20 0 20 -258113 -1 -1;
#X obj 193 35 remoteLyre 1;
#X obj 334 35 remoteLyre 2;
#X obj 475 35 remoteLyre 3;
#X obj 616 35 remoteLyre 4;
#X obj 195 399 OSCrecRemote \$0;
