#N canvas 5 75 432 520 10;
#X obj 72 21 inlet;
#X obj 135 419 s OSCrec-rcv;
#X msg 135 382 replay;
#X msg 188 397 stop;
#X obj 255 121 r OSCrec-snd;
#X obj 188 375 r STOPMOTORS;
#X obj 255 328 del 10;
#X obj 295 197 s STOPLAMPS;
#X obj 309 165 bng 15 250 50 0 empty empty empty 17 7 0 10 -262144
-1 -1;
#X obj 135 79 f 0;
#X obj 135 101 sel 0 1;
#X obj 135 190 t f f;
#X msg 135 165 1;
#X obj 210 197 tgl 15 0 empty empty empty 17 7 0 10 -262144 -1 -1 1
1;
#X obj 255 306 sel 1 0;
#X msg 304 260 0;
#X msg 176 165 0;
#N canvas 8 75 450 300 longPush 0;
#X obj 111 21 inlet;
#X obj 111 43 change;
#X obj 111 68 sel 1 0;
#X obj 111 157 del 2000;
#X msg 134 103 stop;
#X msg 253 187 1;
#X msg 221 187 0;
#X obj 182 214 spigot;
#X obj 181 235 outlet short;
#X obj 89 235 outlet long;
#X obj 123 134 del 500;
#X connect 0 0 1 0;
#X connect 1 0 2 0;
#X connect 2 0 3 0;
#X connect 2 0 5 0;
#X connect 2 0 10 0;
#X connect 2 1 4 0;
#X connect 2 1 7 0;
#X connect 3 0 9 0;
#X connect 4 0 3 0;
#X connect 4 0 10 0;
#X connect 5 0 7 1;
#X connect 6 0 7 1;
#X connect 7 0 8 0;
#X connect 10 0 6 0;
#X restore 72 45 pd longPush;
#X obj 188 28 bng 15 250 50 0 empty empty empty 17 7 0 10 -262144 -1
-1;
#X obj 255 284 f 0;
#X msg 255 169 bang;
#X obj 255 143 route end stop;
#X obj 72 67 t b b;
#X obj 99 448 s STOPMOTORS;
#X obj 72 479 outlet reHOME;
#X connect 0 0 17 0;
#X connect 2 0 1 0;
#X connect 3 0 1 0;
#X connect 4 0 21 0;
#X connect 5 0 3 0;
#X connect 6 0 2 0;
#X connect 8 0 7 0;
#X connect 9 0 10 0;
#X connect 10 0 12 0;
#X connect 10 1 16 0;
#X connect 11 0 2 0;
#X connect 11 1 13 0;
#X connect 11 1 9 1;
#X connect 12 0 11 0;
#X connect 13 0 19 1;
#X connect 14 0 6 0;
#X connect 14 1 15 0;
#X connect 15 0 9 1;
#X connect 16 0 13 0;
#X connect 17 0 22 0;
#X connect 17 1 9 0;
#X connect 18 0 9 0;
#X connect 19 0 14 0;
#X connect 20 0 19 0;
#X connect 21 0 20 0;
#X connect 21 1 7 0;
#X connect 22 0 24 0;
#X connect 22 1 23 0;
#X connect 22 1 15 0;
