#N canvas 352 287 975 693 10;
#X obj 259 248 text define \$0-seq;
#X obj 101 248 t a b;
#X obj 139 272 t b b;
#X obj 139 295 timer;
#X obj 101 322 list prepend;
#X obj 101 127 spigot;
#X obj 220 162 t b b b;
#X msg 259 191 clear;
#X msg 158 131 1;
#X obj 220 62 bng 15 250 50 0 empty empty rec 17 7 0 10 -258113 -1
-1;
#X obj 283 62 bng 15 250 50 0 empty empty stop 17 7 0 10 -1 -1 -1;
#X msg 355 189 stop, f 5;
#X msg 189 131 0;
#X obj 101 344 text set \$0-seq 1e+06;
#X obj 101 418 text sequence \$0-seq -w 1;
#X msg 101 394 line 0 \, auto;
#X obj 101 440 list trim;
#X obj 345 62 bng 15 250 50 0 empty empty save 17 7 0 10 -260097 -1
-1;
#X obj 409 62 bng 15 250 50 0 empty empty replay 17 7 0 10 -257985
-1 -1;
#X obj 521 255 t f f;
#X obj 548 277 fmod 60;
#X obj 409 264 line 0 100;
#X obj 504 277 div 60;
#X obj 540 65 nbx 5 14 -1e+37 1e+37 0 0 empty empty seconds 0 -8 0
10 -262144 -1 -1 4.4 256;
#X obj 483 65 nbx 5 14 -1e+37 1e+37 0 0 empty empty minutes 0 -8 0
10 -262144 -1 -1 0 256;
#X msg 409 242 0 \, 10000 1e+07;
#X obj 205 478 print;
#X msg 409 286 time \$1;
#X floatatom 522 210 5 0 0 0 - - -;
#X msg 273 465 end;
#X obj 273 441 t b b;
#X obj 428 46 bng 15 250 50 0 empty empty reload 17 7 0 10 -4032 -1
-1;
#X obj 150 163 spigot;
#X msg 168 185 0;
#X obj 101 165 t a b;
#X msg 28 19 3R -0.0824564 \;;
#X obj 220 3 r CONTROLrec-rcv;
#X obj 101 105 r CONTROL;
#X obj 327 622 s CONTROLrec-snd;
#X obj 101 466 s CONTROL;
#X obj 185 221 bng 15 250 50 0 empty empty empty 17 7 0 10 -262144
-1 -1;
#X obj 390 93 bng 15 250 50 0 empty empty load 17 7 0 10 -4034 -1 -1
;
#X symbolatom 441 91 20 0 0 0 - - -;
#X obj 643 35 getdir;
#X msg 643 58 symbol \$1/recs;
#X obj 775 33 getdir;
#X msg 775 56 symbol \$1/recs;
#X obj 329 92 bng 15 250 50 0 empty empty saveas 17 7 0 10 -260097
-1 -1;
#X obj 574 155 stripdir;
#X obj 674 166 symbol;
#X msg 677 257 write \$1;
#X msg 611 258 read \$1;
#X obj 630 229 symbol;
#X obj 692 231 symbol;
#X msg 573 389 line 0;
#X obj 518 401 until;
#X obj 518 427 text sequence \$0-seq;
#X obj 518 450 unpack f;
#X obj 505 329 bng 15 250 50 0 empty empty empty 17 7 0 10 -262144
-1 -1;
#X obj 518 473 +;
#X obj 518 496 f;
#X msg 582 451 0;
#X obj 499 356 t b b b;
#X obj 499 519 f;
#X floatatom 499 542 8 0 0 0 - - -;
#X obj 412 565 /;
#X obj 412 543 * 1000;
#X obj 428 600 hsl 128 15 0 1 0 0 empty empty empty -2 -8 0 10 -262144
-1 -1 3914 1;
#X msg 351 594 progress \$1;
#X obj 220 22 route start stop save replay reload saveas load, f 63
;
#X obj 643 84 openpanel;
#X obj 643 111 symbol;
#X obj 775 86 savepanel;
#X obj 775 116 symbol;
#X obj 219 298 s REPEAT_CONTROL;
#X connect 1 0 4 0;
#X connect 1 1 2 0;
#X connect 2 0 3 0;
#X connect 2 1 3 1;
#X connect 3 0 4 1;
#X connect 4 0 13 0;
#X connect 5 0 34 0;
#X connect 6 0 74 0;
#X connect 6 1 8 0;
#X connect 6 1 40 0;
#X connect 6 2 7 0;
#X connect 7 0 0 0;
#X connect 8 0 5 1;
#X connect 8 0 32 1;
#X connect 9 0 6 0;
#X connect 10 0 11 0;
#X connect 11 0 14 0;
#X connect 11 0 12 0;
#X connect 11 0 21 0;
#X connect 11 0 38 0;
#X connect 12 0 5 1;
#X connect 12 0 32 1;
#X connect 14 0 16 0;
#X connect 14 2 30 0;
#X connect 15 0 14 0;
#X connect 16 0 39 0;
#X connect 17 0 53 0;
#X connect 18 0 25 0;
#X connect 18 0 15 0;
#X connect 18 0 62 0;
#X connect 19 0 22 0;
#X connect 19 1 20 0;
#X connect 20 0 23 0;
#X connect 21 0 19 0;
#X connect 21 0 27 0;
#X connect 21 0 66 0;
#X connect 22 0 24 0;
#X connect 25 0 21 0;
#X connect 27 0 38 0;
#X connect 28 0 19 0;
#X connect 29 0 38 0;
#X connect 30 0 29 0;
#X connect 30 1 11 0;
#X connect 31 0 52 0;
#X connect 32 0 33 0;
#X connect 32 0 25 0;
#X connect 32 0 3 0;
#X connect 33 0 32 1;
#X connect 34 0 1 0;
#X connect 36 0 69 0;
#X connect 37 0 5 0;
#X connect 40 0 3 0;
#X connect 40 0 25 0;
#X connect 41 0 43 0;
#X connect 43 0 44 0;
#X connect 44 0 70 0;
#X connect 45 0 46 0;
#X connect 46 0 72 0;
#X connect 47 0 45 0;
#X connect 48 0 42 0;
#X connect 49 0 52 1;
#X connect 49 0 53 1;
#X connect 49 0 48 0;
#X connect 50 0 0 0;
#X connect 51 0 0 0;
#X connect 52 0 51 0;
#X connect 53 0 50 0;
#X connect 54 0 56 0;
#X connect 55 0 56 0;
#X connect 56 0 57 0;
#X connect 56 1 55 1;
#X connect 57 0 59 0;
#X connect 58 0 62 0;
#X connect 59 0 60 0;
#X connect 60 0 59 1;
#X connect 60 0 63 1;
#X connect 61 0 60 0;
#X connect 62 0 63 0;
#X connect 62 1 55 0;
#X connect 62 2 54 0;
#X connect 62 2 61 0;
#X connect 63 0 64 0;
#X connect 63 0 65 1;
#X connect 65 0 67 0;
#X connect 65 0 68 0;
#X connect 66 0 65 0;
#X connect 68 0 38 0;
#X connect 69 0 9 0;
#X connect 69 1 10 0;
#X connect 69 2 17 0;
#X connect 69 3 18 0;
#X connect 69 4 31 0;
#X connect 69 5 73 0;
#X connect 69 6 71 0;
#X connect 70 0 71 0;
#X connect 71 0 51 0;
#X connect 71 0 49 0;
#X connect 72 0 73 0;
#X connect 73 0 50 0;
#X connect 73 0 49 0;
#X coords 0 -1 1 1 400 80 1 200 40;
