#N canvas 132 381 711 453 10;
#X obj 68 165 pack f f;
#X obj 68 123 t a b;
#X obj 68 188 unpack f f;
#X obj 68 237 pack f f;
#X obj 68 259 line;
#X obj 135 215 * 1000;
#X obj 68 80 r CONTROL;
#X obj 14 28 hsl 128 15 0 100 0 0 \$3-val \$3-val empty 5 8 0 10 -257985
-1 -1 0 1;
#X obj 313 116 / 100;
#X obj 68 215 clip 0 100;
#X obj 105 12 nbx 5 14 0 100 0 0 \$3-val \$3-val empty 0 -8 0 10 -262144
-1 -1 0 256;
#X msg 181 235 stop;
#X obj 286 349 s MONITOR;
#X obj 286 302 f;
#X obj 286 73 r reSend;
#X obj 313 137 clip 0 1;
#X obj 313 157 pow 3;
#X msg 100 143 0;
#X msg 313 271 c \$2 i \$1;
#X obj 313 178 * 1023;
#X obj 412 125 loadbang;
#X obj 313 200 i;
#X obj 313 222 change;
#X obj 313 248 pack f f;
#X obj 412 147 f \$2;
#X obj 68 102 route \$3 stop;
#X obj 68 279 s \$3-val;
#X obj 313 94 r \$3-val;
#X obj 286 327 list prepend \$3;
#X obj 490 91 r \$3-val;
#X obj 490 132 OSClink \$3;
#X obj 490 175 s \$3-val;
#X floatatom 435 253 5 0 0 0 - - -, f 5;
#X obj 412 169 + 50;
#X obj 399 75 bng 15 250 50 0 empty empty empty 17 7 0 10 -262144 -1
-1;
#X obj 313 293 fruit/send2 fruit\$1;
#X obj 490 113 / 10;
#X obj 490 154 * 10;
#X connect 0 0 2 0;
#X connect 1 0 0 0;
#X connect 1 1 17 0;
#X connect 2 0 9 0;
#X connect 2 1 5 0;
#X connect 3 0 4 0;
#X connect 4 0 26 0;
#X connect 5 0 3 1;
#X connect 6 0 25 0;
#X connect 8 0 15 0;
#X connect 9 0 3 0;
#X connect 11 0 4 0;
#X connect 13 0 28 0;
#X connect 14 0 13 0;
#X connect 15 0 16 0;
#X connect 16 0 19 0;
#X connect 17 0 0 1;
#X connect 18 0 35 0;
#X connect 19 0 21 0;
#X connect 20 0 24 0;
#X connect 21 0 22 0;
#X connect 22 0 23 0;
#X connect 23 0 18 0;
#X connect 24 0 33 0;
#X connect 25 0 1 0;
#X connect 25 1 11 0;
#X connect 27 0 8 0;
#X connect 27 0 13 0;
#X connect 28 0 12 0;
#X connect 29 0 36 0;
#X connect 30 0 37 0;
#X connect 33 0 23 1;
#X connect 33 0 32 0;
#X connect 34 0 24 0;
#X connect 36 0 30 0;
#X connect 37 0 31 0;
#X coords 0 -1 1 1 150 34 1 10 10;
