#N canvas 161 199 698 516 10;
#X obj 101 55 r fromOSC;
#X obj 259 198 text define \$0-seq;
#X obj 101 198 t a b;
#X obj 139 222 t b b;
#X obj 139 245 timer;
#X obj 101 272 list prepend;
#X obj 101 77 spigot;
#X obj 220 112 t b b b;
#X msg 259 141 clear;
#X msg 158 81 1;
#X obj 220 62 bng 15 250 50 0 empty empty rec 17 7 0 10 -258113 -1
-1;
#X obj 283 62 bng 15 250 50 0 empty empty stop 17 7 0 10 -1 -1 -1;
#X msg 355 139 stop, f 5;
#X msg 189 81 0;
#X obj 101 294 text set \$0-seq 1e+06;
#X obj 101 368 text sequence \$0-seq -w 1;
#X msg 101 344 line 0 \, auto;
#X obj 101 390 list trim;
#X obj 101 416 s fromOSCrec;
#X obj 345 62 bng 15 250 50 0 empty empty save 17 7 0 10 -260097 -1
-1;
#X obj 409 62 bng 15 250 50 0 empty empty replay 17 7 0 10 -257985
-1 -1;
#X msg 345 106 write oscseq.txt;
#X msg 396 309 read oscseq.txt;
#X obj 396 288 loadbang;
#X obj 521 205 t f f;
#X obj 548 227 fmod 60;
#X obj 409 214 line 0 100;
#X obj 504 227 div 60;
#X obj 540 65 nbx 5 14 -1e+37 1e+37 0 0 empty empty seconds 0 -8 0
10 -262144 -1 -1 2.5 256;
#X obj 483 65 nbx 5 14 -1e+37 1e+37 0 0 empty empty minutes 0 -8 0
10 -262144 -1 -1 0 256;
#X msg 409 192 0 \, 10000 1e+07;
#X obj 205 428 print;
#X obj 409 257 s OSCrec-snd;
#X obj 220 3 r OSCrec-rcv;
#X msg 409 236 time \$1;
#X floatatom 522 160 5 0 0 0 - - -, f 5;
#X msg 273 415 end;
#X obj 273 391 t b b;
#X obj 220 22 route start stop save replay reload;
#X obj 428 46 bng 15 250 50 0 empty empty reload 17 7 0 10 -4032 -1
-1;
#X obj 150 113 spigot;
#X msg 168 135 0;
#X obj 101 115 t a b;
#X msg 28 19 3R -0.0824564 \;;
#X connect 0 0 6 0;
#X connect 2 0 5 0;
#X connect 2 1 3 0;
#X connect 3 0 4 0;
#X connect 3 1 4 1;
#X connect 4 0 5 1;
#X connect 5 0 14 0;
#X connect 6 0 42 0;
#X connect 7 0 9 0;
#X connect 7 2 8 0;
#X connect 8 0 1 0;
#X connect 9 0 6 1;
#X connect 9 0 40 1;
#X connect 10 0 7 0;
#X connect 11 0 12 0;
#X connect 12 0 15 0;
#X connect 12 0 13 0;
#X connect 12 0 26 0;
#X connect 12 0 32 0;
#X connect 13 0 6 1;
#X connect 13 0 40 1;
#X connect 15 0 17 0;
#X connect 15 2 37 0;
#X connect 16 0 15 0;
#X connect 17 0 18 0;
#X connect 19 0 21 0;
#X connect 20 0 30 0;
#X connect 20 0 16 0;
#X connect 21 0 1 0;
#X connect 22 0 1 0;
#X connect 23 0 22 0;
#X connect 24 0 27 0;
#X connect 24 1 25 0;
#X connect 25 0 28 0;
#X connect 26 0 24 0;
#X connect 26 0 34 0;
#X connect 27 0 29 0;
#X connect 30 0 26 0;
#X connect 33 0 38 0;
#X connect 34 0 32 0;
#X connect 35 0 24 0;
#X connect 36 0 32 0;
#X connect 37 0 36 0;
#X connect 37 1 12 0;
#X connect 38 0 10 0;
#X connect 38 1 11 0;
#X connect 38 2 19 0;
#X connect 38 3 20 0;
#X connect 38 4 39 0;
#X connect 39 0 22 0;
#X connect 40 0 41 0;
#X connect 40 0 30 0;
#X connect 40 0 4 0;
#X connect 41 0 40 1;
#X connect 42 0 2 0;
#X connect 42 1 40 0;
#X connect 43 0 6 0;
#X coords 0 -1 1 1 400 40 1 200 40;
