#N canvas 331 123 1038 726 10;
#X obj 169 286 text define \$1;
#X obj 41 302 text get \$1;
#X obj 130 477 -;
#X obj 98 454 t f f;
#X obj 98 498 s seq-\$1-lasttime;
#X obj 148 455 r seq-\$1-lasttime;
#X obj 130 522 spigot 1;
#X obj 130 544 * 1000;
#X obj 130 567 del;
#X obj 130 663 +;
#X msg 130 615 1;
#X obj 41 280 t f f;
#X obj 198 312 sel 0;
#X msg 198 333 0;
#X obj 198 355 s seq-\$1-lasttime;
#X obj 297 585 list;
#X obj 148 639 r seq-\$1-getline;
#X obj 130 688 s seq-\$1-getline;
#X obj 41 259 r seq-\$1-getline;
#X obj 297 634 s seq-\$1-line;
#X obj 469 431 s seq-\$1-getline;
#X msg 469 409 0;
#X obj 321 669 r seq-\$1-line;
#X obj 321 696 print SEQ;
#X obj 442 535 metro;
#X obj 511 512 /;
#X obj 511 469 loadbang;
#X obj 442 564 i;
#X obj 473 564 + 1;
#X msg 442 497 1;
#X obj 442 469 t b b;
#X msg 339 380 stop;
#X obj 294 543 bng 15 250 50 0 empty empty empty 17 7 0 10 -262144
-1 -1;
#X obj 297 608 list trim;
#X obj 590 409 r seq-\$1-getline;
#X msg 394 297 0;
#X obj 130 591 t b b b;
#X obj 328 429 r seq-\$1-lasttime;
#X obj 313 450 f;
#X obj 98 383 list split 1;
#X msg 511 491 1000 10;
#X obj 483 537 * 10;
#X obj 442 587 / 10;
#X obj 226 385 sel 2;
#X msg 258 428 END;
#X msg 483 496 0;
#X obj 442 388 t b b;
#X floatatom 58 562 5 0 0 0 - - -, f 5;
#X obj 41 389 b;
#X obj 51 80 route float;
#N canvas 977 143 406 486 cut# 0;
#X obj 84 49 inlet;
#X obj 160 258 list split 1;
#X obj 84 80 t b a b;
#X obj 259 286 t a;
#X msg 259 264 list;
#X obj 84 340 list;
#X obj 160 283 list append;
#X obj 107 102 t a a;
#X obj 160 237 list;
#X obj 107 124 list split 1;
#X obj 107 169 list fromsymbol;
#X obj 107 146 route symbol;
#X obj 160 215 b;
#X obj 107 193 route 35;
#X text 172 192 route # char;
#X obj 84 398 outlet;
#X msg 173 43 A B # C;
#X connect 0 0 2 0;
#X connect 1 0 6 0;
#X connect 1 1 7 0;
#X connect 2 0 5 0;
#X connect 2 1 7 0;
#X connect 2 2 4 0;
#X connect 3 0 5 1;
#X connect 3 0 6 1;
#X connect 4 0 3 0;
#X connect 5 0 15 0;
#X connect 6 0 3 0;
#X connect 7 0 9 0;
#X connect 7 1 8 1;
#X connect 8 0 1 0;
#X connect 9 0 11 0;
#X connect 10 0 13 0;
#X connect 11 0 10 0;
#X connect 11 1 12 0;
#X connect 12 0 8 0;
#X connect 13 1 12 0;
#X connect 16 0 2 0;
#X restore 132 408 pd cut#;
#X obj 226 407 t b b;
#X obj 206 411 bng 15 250 50 0 empty empty empty 17 7 0 10 -262144
-1 -1;
#X obj 41 325 route bang;
#X obj 41 435 bng 15 250 50 0 empty empty empty 17 7 0 10 -262144 -1
-1;
#N canvas 8 75 450 300 getlength 0;
#X obj 136 10 inlet;
#X obj 159 154 text get \$1;
#X obj 159 83 until;
#X obj 159 177 route bang;
#X obj 159 198 b;
#X obj 159 105 i;
#X obj 207 125 + 1;
#X obj 159 127 t f f;
#X obj 136 39 bng 15 250 50 0 empty empty empty 17 7 0 10 -262144 -1
-1;
#X obj 226 199 list split 1;
#X obj 226 221 route float;
#X obj 136 238 f;
#X obj 136 60 t b b b;
#X msg 197 103 0;
#X floatatom 136 259 5 0 0 0 - - -, f 5;
#X text 196 58 get length;
#X obj 136 278 outlet;
#X connect 0 0 8 0;
#X connect 1 0 3 0;
#X connect 2 0 5 0;
#X connect 3 0 4 0;
#X connect 3 1 9 0;
#X connect 4 0 2 1;
#X connect 5 0 7 0;
#X connect 6 0 5 1;
#X connect 7 0 1 0;
#X connect 7 1 6 0;
#X connect 8 0 12 0;
#X connect 9 0 10 0;
#X connect 10 0 11 1;
#X connect 11 0 14 0;
#X connect 12 0 11 0;
#X connect 12 1 2 0;
#X connect 12 2 13 0;
#X connect 13 0 5 1;
#X connect 13 0 11 1;
#X connect 14 0 16 0;
#X restore 68 201 pd getlength;
#X obj 68 222 s seq-\$1-length;
#X obj 51 11 r seq-\$1-rcv;
#X floatatom 515 49 6 0 0 1 sec - -, f 6;
#X obj 541 30 bng 15 250 50 0 \$1-RELOAD empty RELOAD 17 7 0 10 -260097
-1 -1;
#X obj 405 30 bng 15 250 50 0 \$1-GO empty GO 17 7 0 10 -4034 -1 -1
;
#X obj 448 30 bng 15 250 50 0 \$1-STOP empty STOP 17 7 0 10 -258113
-1 -1;
#X obj 495 30 bng 15 250 50 0 \$1-SKIP empty SKIP 17 7 0 10 -257985
-1 -1;
#X floatatom 405 48 3 0 0 1 L - -, f 3;
#X obj 413 96 r \$1-GO;
#X msg 413 118 go;
#X obj 464 97 r \$1-STOP;
#X msg 464 119 stop;
#X obj 528 96 r \$1-SKIP;
#X msg 528 118 skip;
#X obj 19 56 r \$1-RELOAD;
#X obj 464 153 s seq-\$1-rcv;
#X obj 51 124 t b f f b;
#X obj 118 121 s \$1-STOP;
#X obj 623 554 r seq-\$1-nb;
#X obj 85 146 s seq-\$1-nb;
#X obj 14 146 s \$1-GO;
#X obj 51 102 f 1;
#X obj 442 613 s seq-\$1-time;
#X obj 602 459 r seq-\$1-time;
#X obj 590 628 s seq-\$1-snd;
#X msg 590 432 linenb \$1;
#X msg 602 481 time \$1;
#X msg 623 576 nb \$1;
#X obj 613 504 r seq-\$1-length;
#X msg 613 527 length \$1;
#X obj 327 5 inlet;
#X obj 327 26 s seq-\$1-rcv;
#X obj 515 70 r seq-\$1-time;
#X obj 405 70 r seq-\$1-getline;
#X floatatom 529 13 5 0 0 1 seq_nb - -, f 5;
#X obj 614 54 r seq-\$1-nb;
#X obj 551 394 bng 15 250 50 0 empty empty empty 17 7 0 10 -262144
-1 -1;
#X obj 351 353 bng 15 250 50 0 empty empty empty 17 7 0 10 -262144
-1 -1;
#X obj 224 108 text fromlist \$1;
#X obj 51 33 route load go stop skip dump get save;
#X floatatom 687 609 5 0 0 0 - - -, f 5;
#X obj 475 319 r seq-\$1-length;
#X obj 475 341 != 0;
#X obj 442 363 spigot;
#X obj 224 62 t a b;
#X msg 251 82 list;
#X obj 169 202 ggee/getdir;
#X obj 169 223 pack s f;
#X obj 169 182 t b f;
#X obj 350 185 ggee/getdir;
#X obj 350 206 pack s f;
#X obj 350 165 t b f;
#X msg 169 266 clear \, read \$1;
#X msg 350 249 write \$1;
#X msg 169 244 symbol \$1/../data/seq\$2.txt;
#X msg 350 227 symbol \$1/../data/seq\$2.txt;
#X obj 610 113 text size \$1;
#X floatatom 610 135 5 0 0 0 - - -, f 5;
#X obj 617 88 bng 15 250 50 0 empty empty empty 17 7 0 10 -262144 -1
-1;
#X msg 176 100 send;
#X obj 176 148 s;
#X obj 176 55 symbol;
#X obj 176 77 t b s;
#X obj 176 125 textExchange \$1;
#N canvas 980 135 406 486 cut# 0;
#X obj 84 49 inlet;
#X obj 160 258 list split 1;
#X obj 84 80 t b a b;
#X obj 259 286 t a;
#X msg 259 264 list;
#X obj 84 340 list;
#X obj 160 283 list append;
#X obj 107 102 t a a;
#X obj 160 237 list;
#X obj 107 124 list split 1;
#X obj 107 169 list fromsymbol;
#X obj 107 146 route symbol;
#X obj 160 215 b;
#X obj 107 193 route 35;
#X text 172 192 route # char;
#X obj 84 398 outlet;
#X msg 173 43 A B # C;
#X obj 160 399 outlet;
#X obj 107 215 b;
#X connect 0 0 2 0;
#X connect 1 0 6 0;
#X connect 1 1 7 0;
#X connect 2 0 5 0;
#X connect 2 1 7 0;
#X connect 2 2 4 0;
#X connect 3 0 5 1;
#X connect 3 0 6 1;
#X connect 4 0 3 0;
#X connect 5 0 15 0;
#X connect 6 0 3 0;
#X connect 7 0 9 0;
#X connect 7 1 8 1;
#X connect 8 0 1 0;
#X connect 9 0 11 0;
#X connect 10 0 13 0;
#X connect 11 0 10 0;
#X connect 11 1 12 0;
#X connect 12 0 8 0;
#X connect 13 0 18 0;
#X connect 13 1 12 0;
#X connect 16 0 2 0;
#X connect 18 0 17 0;
#X restore 98 356 pd cut#;
#X obj 61 462 bng 15 250 50 0 empty empty empty 17 7 0 10 -262144 -1
-1;
#X obj 61 482 del 0;
#X msg 843 482 stop;
#X msg 878 481 skip;
#X obj 843 516 s seq-\$1-rcv;
#X msg 812 482 go;
#X obj 810 277 r seq-\$1-time;
#X obj 940 309 r seq-\$1-line;
#X obj 895 367 b;
#X obj 868 310 spigot;
#X obj 862 243 t b f b;
#X msg 901 278 1;
#X msg 940 389 0;
#X obj 812 350 t b b;
#X msg 862 212 5.5;
#X floatatom 760 355 5 0 0 0 - - -, f 5;
#X obj 944 507 print;
#X obj 940 331 route END;
#X obj 788 571 text size \$1;
#X msg 959 466 0;
#X obj 868 339 moses;
#X obj 917 422 bng 15 250 50 0 empty empty empty 17 7 0 10 -262144
-1 -1;
#X obj 852 375 b;
#X obj 882 164 hsl 128 15 0 35 0 0 empty empty empty -2 -8 0 10 -262144
-1 -1 0 1;
#X obj 838 405 del 0;
#X obj 68 170 t b b f;
#N canvas 63 96 738 415 timeline 1;
#X obj 167 293 line;
#X obj 167 107 f;
#X msg 157 34 5.5;
#X msg 126 35 0;
#X obj 194 155 list prepend;
#X obj 194 176 -;
#X obj 167 129 t f f;
#X obj 167 228 pack f f f;
#X msg 167 250 \$1 \, \$3 \$2;
#X floatatom 167 315 5 0 0 0 - - -, f 5;
#X obj 263 107 r seq-\$1-length;
#X obj 263 130 f;
#X msg 276 56 35;
#X floatatom 287 159 5 0 0 0 - - -, f 5;
#X msg 230 53 2;
#X obj 194 199 * 1000;
#X msg 335 60 7;
#X obj 509 214 text get \$1;
#X obj 509 261 list split 1;
#X obj 509 283 route float;
#X obj 509 305 moses;
#X obj 510 173 i;
#X obj 546 174 + 1;
#X floatatom 469 174 5 0 0 0 - - -, f 5;
#X obj 510 126 t b f;
#X msg 510 148 0;
#X obj 509 236 t a a;
#X connect 0 0 9 0;
#X connect 1 0 6 0;
#X connect 2 0 1 0;
#X connect 3 0 1 0;
#X connect 4 0 5 0;
#X connect 5 0 15 0;
#X connect 6 0 7 0;
#X connect 6 1 4 0;
#X connect 7 0 8 0;
#X connect 8 0 0 0;
#X connect 10 0 11 0;
#X connect 11 0 4 1;
#X connect 11 0 7 2;
#X connect 11 0 13 0;
#X connect 12 0 11 0;
#X connect 14 0 11 0;
#X connect 15 0 7 1;
#X connect 16 0 11 0;
#X connect 17 0 26 0;
#X connect 18 0 19 0;
#X connect 19 0 20 0;
#X connect 21 0 22 0;
#X connect 21 0 23 0;
#X connect 22 0 21 1;
#X connect 24 0 25 0;
#X connect 24 1 20 1;
#X connect 25 0 21 0;
#X connect 26 0 18 0;
#X restore 627 257 pd timeline;
#X floatatom 28 225 5 0 0 0 - - -, f 5;
#X connect 1 0 53 0;
#X connect 1 1 43 0;
#X connect 2 0 6 0;
#X connect 3 0 4 0;
#X connect 3 1 2 0;
#X connect 5 0 2 1;
#X connect 6 0 7 0;
#X connect 7 0 8 0;
#X connect 8 0 36 0;
#X connect 9 0 17 0;
#X connect 10 0 9 0;
#X connect 11 0 1 0;
#X connect 11 1 12 0;
#X connect 12 0 13 0;
#X connect 13 0 14 0;
#X connect 15 0 33 0;
#X connect 16 0 9 1;
#X connect 18 0 11 0;
#X connect 21 0 20 0;
#X connect 24 0 27 0;
#X connect 25 0 24 1;
#X connect 26 0 40 0;
#X connect 27 0 28 0;
#X connect 27 0 42 0;
#X connect 28 0 27 1;
#X connect 29 0 24 0;
#X connect 30 0 29 0;
#X connect 30 1 45 0;
#X connect 31 0 8 0;
#X connect 31 0 24 0;
#X connect 31 0 19 0;
#X connect 32 0 15 0;
#X connect 33 0 19 0;
#X connect 34 0 81 0;
#X connect 35 0 8 0;
#X connect 35 0 29 0;
#X connect 36 0 10 0;
#X connect 36 1 15 0;
#X connect 36 2 38 0;
#X connect 37 0 38 1;
#X connect 38 0 41 0;
#X connect 39 0 3 0;
#X connect 39 1 50 0;
#X connect 40 0 25 0;
#X connect 41 0 27 1;
#X connect 42 0 78 0;
#X connect 43 0 51 0;
#X connect 44 0 19 0;
#X connect 45 0 41 0;
#X connect 46 0 30 0;
#X connect 46 1 21 0;
#X connect 48 0 54 0;
#X connect 49 0 77 0;
#X connect 50 0 15 1;
#X connect 51 0 31 0;
#X connect 51 1 44 0;
#X connect 52 0 51 0;
#X connect 53 0 48 0;
#X connect 53 1 120 0;
#X connect 55 0 56 0;
#X connect 55 0 148 0;
#X connect 57 0 95 0;
#X connect 64 0 65 0;
#X connect 65 0 71 0;
#X connect 66 0 67 0;
#X connect 67 0 71 0;
#X connect 68 0 69 0;
#X connect 69 0 71 0;
#X connect 70 0 77 0;
#X connect 72 0 76 0;
#X connect 72 1 146 0;
#X connect 72 2 75 0;
#X connect 72 3 73 0;
#X connect 74 0 83 0;
#X connect 77 0 72 0;
#X connect 79 0 82 0;
#X connect 81 0 80 0;
#X connect 82 0 80 0;
#X connect 83 0 80 0;
#X connect 84 0 85 0;
#X connect 85 0 80 0;
#X connect 86 0 87 0;
#X connect 88 0 58 0;
#X connect 89 0 63 0;
#X connect 91 0 90 0;
#X connect 95 0 49 0;
#X connect 95 1 99 0;
#X connect 95 2 31 0;
#X connect 95 3 35 0;
#X connect 95 4 117 0;
#X connect 95 5 100 0;
#X connect 95 6 107 0;
#X connect 95 7 119 0;
#X connect 97 0 98 0;
#X connect 98 0 99 1;
#X connect 99 0 46 0;
#X connect 100 0 94 0;
#X connect 100 1 101 0;
#X connect 101 0 94 0;
#X connect 102 0 103 0;
#X connect 103 0 110 0;
#X connect 104 0 102 0;
#X connect 104 1 103 1;
#X connect 105 0 106 0;
#X connect 106 0 111 0;
#X connect 107 0 105 0;
#X connect 107 1 106 1;
#X connect 108 0 0 0;
#X connect 109 0 0 0;
#X connect 110 0 108 0;
#X connect 111 0 109 0;
#X connect 112 0 113 0;
#X connect 114 0 112 0;
#X connect 115 0 119 0;
#X connect 117 0 118 0;
#X connect 118 0 115 0;
#X connect 118 1 116 1;
#X connect 119 0 116 0;
#X connect 120 0 39 0;
#X connect 120 1 121 0;
#X connect 121 0 122 0;
#X connect 122 0 10 0;
#X connect 123 0 125 0;
#X connect 124 0 125 0;
#X connect 126 0 125 0;
#X connect 127 0 136 0;
#X connect 127 0 130 0;
#X connect 128 0 138 0;
#X connect 129 0 133 0;
#X connect 129 0 123 0;
#X connect 129 0 142 0;
#X connect 130 0 141 0;
#X connect 131 0 134 0;
#X connect 131 1 141 1;
#X connect 131 2 132 0;
#X connect 132 0 130 1;
#X connect 133 0 130 1;
#X connect 134 0 126 0;
#X connect 135 0 131 0;
#X connect 138 0 129 0;
#X connect 140 0 137 0;
#X connect 141 0 143 0;
#X connect 141 1 129 0;
#X connect 143 0 145 0;
#X connect 144 0 131 0;
#X connect 145 0 124 0;
#X connect 146 0 55 0;
#X connect 146 2 104 0;
#X coords 0 -1 1 1 200 55 1 400 10;
