#N canvas 459 97 1406 854 12;
#X obj 26 41 r fromTeleco;
#X obj 26 91 unpack f f, f 18;
#X obj 25 67 route proj\$1_pantilt proj\$1_rotation Vrot, f 62;
#X obj 26 146 pack f f;
#X obj 150 146 pack f f;
#X obj 26 171 list prepend \$1X;
#X obj 149 170 list prepend \$1Y;
#X obj 26 228 s CONTROL;
#X obj 26 202 list trim;
#X obj 274 145 pack f f;
#X obj 273 169 list prepend \$1R;
#X obj 26 258 r MONITOR;
#X obj 26 319 route \$1X \$1Y \$1R;
#X obj 26 291 list trim;
#X obj 26 422 pack f f;
#X obj 26 344 t b f;
#X obj 26 369 del 5;
#X obj 26 394 f;
#X obj 73 343 t b f;
#X obj 26 447 list prepend proj\$1_pantilt_vu;
#X obj 26 472 list trim;
#X obj 26 505 s toTeleco;
#X obj 250 447 list prepend proj\$1_rotation_vu;
#X obj 584 32 r fromTeleco;
#X obj 584 107 pack f f;
#X obj 726 104 pack f f;
#X obj 584 198 s CONTROL;
#X obj 584 172 list trim;
#X obj 584 228 r MONITOR;
#X obj 584 261 list trim;
#X obj 584 372 list trim;
#X obj 584 405 s toTeleco;
#X obj 584 141 list prepend \$1L1;
#X obj 726 139 list prepend \$1L2;
#X obj 584 317 list prepend proj\$1_lumiere1_vu;
#X obj 810 317 list prepend proj\$1_lumiere2_vu;
#X obj 37 119 apf PRESETS \$1X;
#X obj 167 120 apf PRESETS \$1Y;
#X obj 676 181 apf PRESETS \$1L1;
#X obj 902 182 apf PRESETS \$1L2;
#X obj 291 116 apf PRESETS \$1R;
#X obj 676 211 list prepend proj\$1_lumiere1;
#X obj 902 211 list prepend proj\$1_lumiere2;
#X obj 169 319 list prepend proj\$1_pantilt;
#X obj 291 283 list prepend proj\$1_rotation;
#X obj 169 290 pack f f;
#X obj 169 212 t b f;
#X obj 169 237 del 5;
#X obj 169 262 f;
#X obj 216 211 t b f;
#X obj 556 468 r fromTeleco;
#X obj 556 634 s CONTROL;
#X obj 556 608 list trim;
#X obj 648 692 list trim;
#X obj 648 725 s toTeleco;
#X obj 555 494 route proj\$1_mode1 proj\$1_mode2;
#X obj 556 577 list prepend \$1mode1;
#X obj 708 575 list prepend \$1mode2;
#X obj 648 647 list prepend proj\$1_mode1;
#X obj 874 647 list prepend proj\$1_mode2;
#X obj 648 617 apf PRESETS \$1mode1;
#X obj 874 618 apf PRESETS \$1mode2;
#X obj 489 550 print;
#X obj 555 535 f;
#X obj 685 534 f;
#X obj 142 550 repeat_control \$1X;
#X obj 142 579 repeat_control \$1Y;
#X obj 142 605 repeat_control \$1R;
#X obj 147 630 repeat_control \$1L1;
#X obj 149 654 repeat_control \$1L2;
#X obj 141 718 repeat_control \$1mode1;
#X obj 144 741 repeat_control \$1mode2;
#X obj 147 678 repeat_control \$1L3;
#X obj 584 60 route proj\$1_lumiere1 proj\$1_lumiere2 proj\$1_lumiere3
Vlum, f 81;
#X obj 865 101 pack f f;
#X obj 865 135 list prepend \$1L3;
#X obj 1119 180 apf PRESETS \$1L3;
#X obj 1119 209 list prepend proj\$1_lumiere3;
#X obj 584 289 route \$1L1 \$1L2 \$1L3, f 99;
#X obj 1045 315 list prepend proj\$1_lumiere3_vu;
#X obj 250 421 r MOT\$1-realPos;
#X connect 0 0 2 0;
#X connect 1 0 3 0;
#X connect 1 0 36 0;
#X connect 1 1 37 0;
#X connect 1 1 4 0;
#X connect 2 0 1 0;
#X connect 2 1 9 0;
#X connect 2 1 40 0;
#X connect 2 2 3 1;
#X connect 2 2 4 1;
#X connect 2 2 9 1;
#X connect 3 0 5 0;
#X connect 4 0 6 0;
#X connect 5 0 8 0;
#X connect 6 0 8 0;
#X connect 8 0 7 0;
#X connect 9 0 10 0;
#X connect 10 0 8 0;
#X connect 11 0 13 0;
#X connect 12 0 15 0;
#X connect 12 1 18 0;
#X connect 13 0 12 0;
#X connect 14 0 19 0;
#X connect 15 0 16 0;
#X connect 15 1 17 1;
#X connect 16 0 17 0;
#X connect 17 0 14 0;
#X connect 18 0 16 0;
#X connect 18 1 14 1;
#X connect 19 0 20 0;
#X connect 20 0 21 0;
#X connect 22 0 20 0;
#X connect 23 0 73 0;
#X connect 24 0 32 0;
#X connect 25 0 33 0;
#X connect 27 0 26 0;
#X connect 28 0 29 0;
#X connect 29 0 78 0;
#X connect 30 0 31 0;
#X connect 32 0 27 0;
#X connect 33 0 27 0;
#X connect 34 0 30 0;
#X connect 35 0 30 0;
#X connect 36 0 46 0;
#X connect 37 0 49 0;
#X connect 38 0 41 0;
#X connect 39 0 42 0;
#X connect 40 0 44 0;
#X connect 41 0 30 0;
#X connect 42 0 30 0;
#X connect 43 0 20 0;
#X connect 44 0 20 0;
#X connect 45 0 43 0;
#X connect 46 0 47 0;
#X connect 46 1 48 1;
#X connect 47 0 48 0;
#X connect 48 0 45 0;
#X connect 49 0 47 0;
#X connect 49 1 45 1;
#X connect 50 0 55 0;
#X connect 52 0 51 0;
#X connect 53 0 54 0;
#X connect 55 0 63 0;
#X connect 55 1 64 0;
#X connect 56 0 52 0;
#X connect 57 0 52 0;
#X connect 58 0 53 0;
#X connect 59 0 53 0;
#X connect 60 0 58 0;
#X connect 61 0 59 0;
#X connect 63 0 56 0;
#X connect 63 0 60 0;
#X connect 64 0 57 0;
#X connect 64 0 61 0;
#X connect 73 0 24 0;
#X connect 73 0 38 0;
#X connect 73 1 25 0;
#X connect 73 1 39 0;
#X connect 73 2 74 0;
#X connect 73 2 76 0;
#X connect 73 3 74 1;
#X connect 73 3 25 1;
#X connect 73 3 24 1;
#X connect 74 0 75 0;
#X connect 75 0 27 0;
#X connect 76 0 77 0;
#X connect 77 0 30 0;
#X connect 78 0 34 0;
#X connect 78 1 35 0;
#X connect 78 2 79 0;
#X connect 79 0 30 0;
#X connect 80 0 22 0;
