#N canvas 510 107 450 300 12;
#X obj 112 91 r CONTROL;
#X obj 112 116 route \$1;
#X obj 87 144 list;
#X obj 87 54 r REPEAT_CONTROL;
#X obj 87 169 list prepend \$1;
#X obj 87 194 list trim;
#X obj 87 219 s CONTROL;
#X connect 0 0 1 0;
#X connect 1 0 2 1;
#X connect 2 0 4 0;
#X connect 3 0 2 0;
#X connect 4 0 5 0;
#X connect 5 0 6 0;
