#N canvas 8 75 450 300 10;
#X obj 35 100 r CLIENT_MONITOR;
#X msg 35 189 \$1 \, label current:\$1;
#X obj 203 158 s CLIENT_REMOTE;
#X obj 275 7 loadbang;
#X msg 275 51 label \$1;
#X obj 256 10 bng 15 250 50 0 empty empty empty 17 7 0 10 -262144 -1
-1;
#X msg 171 213 label set:\$1;
#X obj 171 173 i;
#X obj 171 193 change;
#X obj 35 146 i;
#X obj 35 166 change;
#X obj 275 29 symbol \$2;
#X obj 203 136 list prepend \$2;
#X obj 35 122 route \$2;
#X obj 275 73 s \$1-title-can;
#X obj 203 114 r \$1-remote-snd;
#X obj 171 234 s \$1-remote-rcv;
#X obj 35 211 s \$1-current-rcv;
#X obj 338 133 loadbang;
#X msg 338 155 0;
#X connect 0 0 13 0;
#X connect 1 0 17 0;
#X connect 3 0 11 0;
#X connect 4 0 14 0;
#X connect 5 0 11 0;
#X connect 6 0 16 0;
#X connect 7 0 8 0;
#X connect 8 0 6 0;
#X connect 9 0 10 0;
#X connect 10 0 1 0;
#X connect 11 0 4 0;
#X connect 12 0 2 0;
#X connect 13 0 9 0;
#X connect 15 0 7 0;
#X connect 15 0 12 0;
#X connect 18 0 19 0;
#X connect 19 0 6 0;
#X connect 19 0 1 0;
